<svg width="76" height="76" viewBox="0 0 76 76" fill="none" xmlns="http://www.w3.org/2000/svg">
<g clip-path="url(#clip0)">
<path d="M65.4379 17.5916L49.0319 1.18558C48.5913 0.749654 47.996 0.501221 47.3725 0.501221H16.9043C15.6105 0.501221 14.5605 1.5512 14.5605 2.84493V3.68867C14.5605 4.9824 15.6105 6.03238 16.9043 6.03238C17.6261 6.03238 18.2777 5.70426 18.7089 5.18865H46.4022L61.4348 20.2212V50.5629C61.4348 51.8614 62.4848 52.9067 63.7785 52.9067C65.0723 52.9067 66.1222 51.8567 66.1222 50.5629V19.2509C66.1222 18.6275 65.8738 18.0322 65.4379 17.5916Z" fill="#3A4C56"/>
<path d="M54.4037 33.3131H48.8725C47.5788 33.3131 46.5288 34.3631 46.5288 35.6568C46.5288 36.9506 47.5788 38.0005 48.8725 38.0005H52.06V41.188C52.06 42.4864 53.11 43.5317 54.4037 43.5317C55.6974 43.5317 56.7474 42.4817 56.7474 41.188V35.6568C56.7474 34.3631 55.6974 33.3131 54.4037 33.3131Z" fill="#3A4C56"/>
<path d="M74.8134 71.5016L65.4386 62.1268L65.4339 62.1221L56.0637 52.7519L56.059 52.7472L37.314 34.0022L37.3093 33.9975L18.5643 15.2525L18.5596 15.2478L4.50199 1.18554C3.58794 0.271488 2.10203 0.271488 1.18798 1.18554C0.273929 2.09958 0.273929 3.5855 1.18798 4.49955L14.5612 17.8775V73.1563C14.5612 74.45 15.6112 75.5 16.9049 75.5H63.7792C65.0729 75.5 66.1229 74.45 66.1229 73.1563V69.4392L71.4947 74.8109C71.9541 75.2703 72.5541 75.5 73.1541 75.5C73.754 75.5 74.354 75.2703 74.8134 74.8156C75.7275 73.9016 75.7275 72.4157 74.8134 71.5016ZM35.6546 47.3754C36.9484 47.3754 37.9983 46.3255 37.9983 45.0317V41.3146L52.0606 55.3769V61.4377H47.3732V54.4066C47.3732 53.1128 46.3232 52.0629 45.0295 52.0629C43.7358 52.0629 42.6858 53.1128 42.6858 54.4066V61.4377H37.9983V54.4066C37.9983 53.1128 36.9484 52.0629 35.6546 52.0629C34.3609 52.0629 33.3109 53.1128 33.3109 54.4066V61.4377H28.6235V38.0006H33.3109V45.0317C33.3109 46.3255 34.3609 47.3754 35.6546 47.3754ZM61.4355 70.8126H19.2486V22.5649L29.9969 33.3132H26.2798C24.986 33.3132 23.9361 34.3631 23.9361 35.6569V63.7814C23.9361 65.0752 24.986 66.1251 26.2798 66.1251H54.4043C55.6981 66.1251 56.7481 65.0752 56.7481 63.7814V60.0643L61.4355 64.7517V70.8126Z" fill="#3A4C56"/>
</g>
<defs>
<clipPath id="clip0">
<rect width="75" height="75" fill="white" transform="translate(0.5 0.5)"/>
</clipPath>
</defs>
</svg>
