<svg width="76" height="76" viewBox="0 0 76 76" fill="none" xmlns="http://www.w3.org/2000/svg">
<g clip-path="url(#clip0)">
<path d="M63.0969 17.5906L46.6906 1.18437C46.25 0.748437 45.6547 0.5 45.0312 0.5H14.5625C13.2688 0.5 12.2188 1.55 12.2188 2.84375V73.1562C12.2188 74.45 13.2688 75.5 14.5625 75.5H61.4375C62.7313 75.5 63.7812 74.45 63.7812 73.1562V19.25C63.7812 18.6266 63.5328 18.0312 63.0969 17.5906ZM59.0938 70.8125H16.9062V5.1875H44.0609L59.0938 20.225V70.8125Z" fill="#3A4C56"/>
<path d="M52.0625 33.3125H23.9375C22.6437 33.3125 21.5938 34.3625 21.5938 35.6562V63.7812C21.5938 65.0797 22.6437 66.125 23.9375 66.125H52.0625C53.3562 66.125 54.4062 65.075 54.4062 63.7812V35.6562C54.4062 34.3625 53.3562 33.3125 52.0625 33.3125ZM49.7187 61.4375H45.0312V54.4062C45.0312 53.1125 43.9812 52.0625 42.6875 52.0625C41.3937 52.0625 40.3437 53.1125 40.3437 54.4062V61.4375H35.6562V54.4062C35.6562 53.1125 34.6062 52.0625 33.3125 52.0625C32.0187 52.0625 30.9687 53.1125 30.9687 54.4062V61.4375H26.2812V38H30.9687V45.0312C30.9687 46.325 32.0187 47.375 33.3125 47.375C34.6062 47.375 35.6562 46.325 35.6562 45.0312V38H40.3437V45.0312C40.3437 46.325 41.3937 47.375 42.6875 47.375C43.9812 47.375 45.0312 46.325 45.0312 45.0312V38H49.7187V61.4375Z" fill="#3A4C56"/>
</g>
<defs>
<clipPath id="clip0">
<rect width="75" height="75" fill="white" transform="translate(0.5 0.5)"/>
</clipPath>
</defs>
</svg>
