<svg width="104" height="104" viewBox="0 0 104 104" fill="none" xmlns="http://www.w3.org/2000/svg">
<g clip-path="url(#clip0)">
<path d="M48.1174 8C21.6499 8 0.118164 29.5317 0.118164 56.0001C0.118164 82.4677 21.6499 104 48.1174 104C74.5842 104 96.1159 82.4677 96.1159 56.0001C96.1159 29.5317 74.5842 8 48.1174 8ZM48.1174 100.087C23.8085 100.087 4.03158 80.3083 4.03158 56.0001C4.03158 31.6912 23.8085 11.9134 48.1174 11.9134C72.4256 11.9134 92.2025 31.6912 92.2025 56.0001C92.2025 80.3083 72.4256 100.087 48.1174 100.087Z" fill="#0089D7"/>
<path d="M72.9078 36.86L38.7781 70.9888L23.3276 55.5392C22.5635 54.775 21.3254 54.775 20.5604 55.5392C19.7963 56.3033 19.7963 57.5414 20.5604 58.3064L37.3945 75.1397C37.7766 75.5217 38.2773 75.7123 38.7781 75.7123C39.2789 75.7123 39.7797 75.5217 40.1617 75.1397L75.675 39.6272C76.4392 38.8631 76.4392 37.6241 75.675 36.86C74.9109 36.0958 73.6719 36.0958 72.9078 36.86Z" fill="#0089D7"/>
</g>
<circle cx="56" cy="48" r="48" fill="#0089D7" fill-opacity="0.07"/>
<defs>
<clipPath id="clip0">
<rect width="96" height="96" fill="white" transform="translate(0 8)"/>
</clipPath>
</defs>
</svg>
