<?xml version="1.0" encoding="utf-8"?><svg viewBox="0 0 76 76" xmlns="http://www.w3.org/2000/svg" xmlns:xlink="http://www.w3.org/1999/xlink"><style>:root>svg{display:none}:root>svg:target{display:block}</style><svg fill="none" viewBox="0 0 76 76" id="no-sim-card" xmlns="http://www.w3.org/2000/svg"><g clip-path="url(#aclip0)" fill="#3A4C56"><path d="M65.438 17.592L49.032 1.186A2.36 2.36 0 0047.372.5H16.905a2.345 2.345 0 00-2.344 2.344v.844a2.345 2.345 0 004.149 1.5h27.693L61.435 20.22v30.342a2.345 2.345 0 004.687 0V19.25a2.36 2.36 0 00-.684-1.66z"/><path d="M54.404 33.313h-5.532a2.345 2.345 0 000 4.688h3.188v3.187a2.345 2.345 0 004.687 0v-5.531a2.345 2.345 0 00-2.343-2.344zM74.813 71.502l-9.374-9.375-.005-.005-9.37-9.37-.005-.005-18.745-18.745-.005-.005-18.745-18.745-.004-.004L4.502 1.186a2.345 2.345 0 00-3.314 0 2.345 2.345 0 000 3.314l13.373 13.378v55.278a2.345 2.345 0 002.344 2.344h46.874a2.345 2.345 0 002.344-2.344V69.44l5.372 5.372c.46.46 1.06.689 1.66.689.599 0 1.199-.23 1.658-.684.915-.914.915-2.4 0-3.314zM35.655 47.375a2.344 2.344 0 002.343-2.343v-3.717l14.063 14.062v6.06h-4.688v-7.03a2.345 2.345 0 00-4.687 0v7.03h-4.688v-7.03a2.344 2.344 0 00-4.687 0v7.03h-4.688V38.002h4.688v7.03a2.345 2.345 0 002.344 2.344zm25.78 23.438H19.25V22.565l10.748 10.748H26.28a2.344 2.344 0 00-2.344 2.344V63.78a2.344 2.344 0 002.344 2.344h28.124a2.345 2.345 0 002.344-2.344v-3.717l4.688 4.688v6.06z"/></g><defs><clipPath id="aclip0"><path fill="#fff" transform="translate(.5 .5)" d="M0 0h75v75H0z"/></clipPath></defs></svg><svg fill="none" viewBox="0 0 76 76" id="sim-card" xmlns="http://www.w3.org/2000/svg"><g clip-path="url(#bclip0)" fill="#3A4C56"><path d="M63.097 17.59L46.69 1.185A2.36 2.36 0 0045.03.5H14.563a2.345 2.345 0 00-2.344 2.344v70.312a2.345 2.345 0 002.344 2.344h46.874a2.345 2.345 0 002.344-2.344V19.25a2.36 2.36 0 00-.684-1.66zm-4.003 53.223H16.906V5.186h27.155l15.033 15.038v50.587z"/><path d="M52.063 33.313H23.936a2.345 2.345 0 00-2.343 2.343v28.125a2.342 2.342 0 002.343 2.344h28.125a2.345 2.345 0 002.344-2.344V35.656a2.345 2.345 0 00-2.343-2.343zm-2.344 28.124H45.03v-7.03a2.345 2.345 0 00-4.687 0v7.03h-4.688v-7.03a2.345 2.345 0 00-4.687 0v7.03H26.28V38h4.688v7.031a2.345 2.345 0 004.687 0V38h4.688v7.031a2.345 2.345 0 004.687 0V38h4.688v23.438z"/></g><defs><clipPath id="bclip0"><path fill="#fff" transform="translate(.5 .5)" d="M0 0h75v75H0z"/></clipPath></defs></svg></svg>